<svg width="60" height="70" viewBox="0 0 60 70" fill="none" xmlns="http://www.w3.org/2000/svg">
<g clip-path="url(#clip0)">
<path d="M58.4986 12.7573C59.0604 24.7875 57.5071 54.6317 29.712 68.9093C2.24741 54.7639 0.429659 25.0188 0.92541 12.7242L58.4986 12.7573Z" fill="#D63647"/>
<path d="M29.712 69.1076L29.6459 69.0746C2.04909 54.863 0.264385 24.9197 0.760136 12.7242V12.559H0.925386L58.6308 12.592V12.7573C59.2257 24.9197 57.5401 54.7639 29.7781 69.0746L29.712 69.1076ZM1.09064 12.8895C0.594886 25.118 2.47874 54.6647 29.712 68.7441C57.1435 54.5656 58.8952 25.118 58.3333 12.9225L1.09064 12.8895Z" fill="#F0F0F0"/>
<path d="M49.5751 49.9385L36.4542 36.8838L58.3333 15.1368V13.1538H46.865L29.712 30.2077L12.6251 13.0547H1.25589V15.269L23.0028 36.8838L9.8489 49.9716C9.8489 49.9716 12.6912 54.7969 15.5335 57.6723L29.745 43.5599L43.9565 57.6723C43.9235 57.6723 48.6827 52.3181 49.5751 49.9385Z" fill="white"/>
<path d="M59.455 0H-0.00203523V12.8895C-0.167285 27.0349 3.00552 55.8215 29.71 70.033C55.9847 56.0859 59.4881 28.0264 59.422 13.6166H59.455V0ZM29.71 68.1161C4.16227 54.5656 1.25387 27.0019 1.45217 13.5836H58.0008C58.1991 27.0019 55.2576 54.5656 29.71 68.1161Z" fill="black"/>
<path d="M7.89895 8.42759C8.16335 8.42759 8.82435 8.42759 9.0557 8.32844C9.28705 8.22929 9.3201 7.86574 9.3201 7.73353V3.37093C9.3201 3.20568 9.28705 2.90823 9.0557 2.80908C8.89045 2.74298 8.82435 2.74298 7.89895 2.67688V2.28028H12.2616V2.67688C11.237 2.74298 11.1709 2.74298 11.0387 2.80908C10.9065 2.87518 10.8074 3.04043 10.8074 3.47008V7.66744C10.8074 8.09709 10.8735 8.29539 11.237 8.36149C11.4023 8.39454 12.0963 8.42759 12.2285 8.42759V8.85724H7.89895V8.42759Z" fill="white"/>
<path d="M24.0935 7.40318C23.8621 7.50233 23.5316 7.66758 22.9698 7.66758C21.5817 7.66758 21.2181 6.21338 21.2181 4.92443C21.2181 3.80073 21.4825 3.23888 21.813 2.87533C22.0774 2.61093 22.441 2.47873 22.7715 2.47873C23.8952 2.47873 24.457 3.70158 24.457 5.22188C24.457 5.94898 24.3248 6.67608 24.0935 7.40318ZM19.9292 11.5014C23.8621 10.9395 26.0104 8.39469 26.0104 5.65153C26.0104 3.33803 24.5562 2.04908 22.8045 2.04908C20.9207 2.04908 19.6648 3.47023 19.6648 5.18883C19.6648 6.84133 20.8215 8.19638 22.6062 8.19638C23.2011 8.19638 23.6308 8.03113 23.8621 7.93198C22.8376 10.0141 20.8215 10.6751 19.7309 11.0387L19.9292 11.5014Z" fill="white"/>
<path d="M38.8668 6.24629L38.2389 8.85725H32.356V8.32845C35.2313 6.44459 36.4542 5.48614 36.4542 4.32939C36.4542 3.66839 35.9584 2.94129 35.033 2.94129C34.3059 2.94129 33.9093 3.20569 33.2153 3.80059L32.8848 3.50314C33.1822 3.13959 34.1076 2.11504 35.7271 2.11504C37.016 2.11504 37.8753 2.80909 37.8753 3.83364C37.8753 5.25479 36.3881 6.21324 34.1076 7.70049H36.9499C37.1813 7.70049 37.6109 7.70049 37.7762 7.56829C38.0075 7.40304 38.0406 7.30389 38.4702 6.27934H38.8668V6.24629Z" fill="white"/>
<path d="M48.4183 2.04908C46.5345 2.04908 45.2785 3.47023 45.2785 5.18883C45.2785 6.84133 46.4353 8.19638 48.22 8.19638C48.8149 8.19638 49.2446 8.03113 49.4759 7.93198C48.4514 10.0141 46.4353 10.6751 45.3446 11.0387L45.543 11.4683C49.4759 10.9065 51.6242 8.36164 51.6242 5.61848C51.6242 3.30498 50.1369 2.04908 48.4183 2.04908ZM49.7073 7.40318C49.4759 7.50233 49.1454 7.66758 48.5836 7.66758C47.1955 7.66758 46.8319 6.21338 46.8319 4.92443C46.8319 3.80073 47.0963 3.23888 47.4268 2.87533C47.6912 2.61093 48.0548 2.47873 48.3853 2.47873C49.509 2.47873 50.0378 3.70158 50.0378 5.22188C50.0708 5.94898 49.9386 6.67608 49.7073 7.40318Z" fill="white"/>
</g>
<defs>
<clipPath id="clip0">
<rect width="59.457" height="70" fill="white"/>
</clipPath>
</defs>
</svg>
